<mxfile host="Electron" modified="2023-05-18T17:59:57.559Z" agent="Mozilla/5.0 (Windows NT 10.0; Win64; x64) AppleWebKit/537.36 (KHTML, like Gecko) draw.io/21.2.8 Chrome/112.0.5615.165 Electron/24.2.0 Safari/537.36" etag="lM3IlRoWs5anB01SKuD4" version="21.2.8" type="device">
  <diagram name="Page-1" id="NmCKqqIRT9WoxrmZhtam">
    <mxGraphModel dx="1886" dy="606" grid="1" gridSize="10" guides="1" tooltips="1" connect="1" arrows="1" fold="1" page="1" pageScale="1" pageWidth="850" pageHeight="1100" math="0" shadow="0">
      <root>
        <mxCell id="0" />
        <mxCell id="1" parent="0" />
        <mxCell id="3cVwDTF0PyyG5tG76cxE-1" value="&lt;font style=&quot;font-size: 16px;&quot;&gt;Movie&lt;/font&gt;" style="rounded=0;whiteSpace=wrap;html=1;fontSize=14;fillColor=#ffdbb8;strokeColor=#36393d;perimeterSpacing=0;fillStyle=auto;" parent="1" vertex="1">
          <mxGeometry x="380" y="580" width="180" height="60" as="geometry" />
        </mxCell>
        <mxCell id="3cVwDTF0PyyG5tG76cxE-3" value="" style="endArrow=none;html=1;rounded=0;entryX=0.5;entryY=1;entryDx=0;entryDy=0;" parent="1" target="3cVwDTF0PyyG5tG76cxE-1" edge="1">
          <mxGeometry width="50" height="50" relative="1" as="geometry">
            <mxPoint x="300" y="690" as="sourcePoint" />
            <mxPoint x="630" y="550" as="targetPoint" />
          </mxGeometry>
        </mxCell>
        <mxCell id="3cVwDTF0PyyG5tG76cxE-4" value="title" style="ellipse;whiteSpace=wrap;html=1;fillColor=#cdeb8b;strokeColor=#36393d;fontSize=13;" parent="1" vertex="1">
          <mxGeometry x="250" y="690" width="100" height="50" as="geometry" />
        </mxCell>
        <mxCell id="3cVwDTF0PyyG5tG76cxE-5" value="" style="endArrow=none;html=1;rounded=0;entryX=0.5;entryY=1;entryDx=0;entryDy=0;" parent="1" target="3cVwDTF0PyyG5tG76cxE-1" edge="1">
          <mxGeometry width="50" height="50" relative="1" as="geometry">
            <mxPoint x="410" y="690" as="sourcePoint" />
            <mxPoint x="630" y="550" as="targetPoint" />
          </mxGeometry>
        </mxCell>
        <mxCell id="3cVwDTF0PyyG5tG76cxE-6" value="id" style="ellipse;whiteSpace=wrap;html=1;fillColor=#cdeb8b;strokeColor=#36393d;fontSize=13;fontStyle=4" parent="1" vertex="1">
          <mxGeometry x="360" y="690" width="100" height="50" as="geometry" />
        </mxCell>
        <mxCell id="3cVwDTF0PyyG5tG76cxE-7" value="" style="endArrow=none;html=1;rounded=0;" parent="1" edge="1">
          <mxGeometry width="50" height="50" relative="1" as="geometry">
            <mxPoint x="470" y="640" as="sourcePoint" />
            <mxPoint x="510" y="690" as="targetPoint" />
          </mxGeometry>
        </mxCell>
        <mxCell id="3cVwDTF0PyyG5tG76cxE-9" style="edgeStyle=orthogonalEdgeStyle;rounded=0;orthogonalLoop=1;jettySize=auto;html=1;exitX=0.5;exitY=1;exitDx=0;exitDy=0;" parent="1" source="3cVwDTF0PyyG5tG76cxE-4" target="3cVwDTF0PyyG5tG76cxE-4" edge="1">
          <mxGeometry relative="1" as="geometry" />
        </mxCell>
        <mxCell id="3cVwDTF0PyyG5tG76cxE-10" value="budget" style="ellipse;whiteSpace=wrap;html=1;fillColor=#cdeb8b;strokeColor=#36393d;fontSize=13;" parent="1" vertex="1">
          <mxGeometry x="470" y="690" width="100" height="50" as="geometry" />
        </mxCell>
        <mxCell id="3cVwDTF0PyyG5tG76cxE-11" value="" style="endArrow=none;html=1;rounded=0;entryX=0.5;entryY=0;entryDx=0;entryDy=0;" parent="1" target="3cVwDTF0PyyG5tG76cxE-12" edge="1">
          <mxGeometry width="50" height="50" relative="1" as="geometry">
            <mxPoint x="470" y="640" as="sourcePoint" />
            <mxPoint x="610" y="690" as="targetPoint" />
          </mxGeometry>
        </mxCell>
        <mxCell id="3cVwDTF0PyyG5tG76cxE-12" value="popularity" style="ellipse;whiteSpace=wrap;html=1;fillColor=#cdeb8b;strokeColor=#36393d;fontSize=13;" parent="1" vertex="1">
          <mxGeometry x="580" y="690" width="100" height="50" as="geometry" />
        </mxCell>
        <mxCell id="3cVwDTF0PyyG5tG76cxE-14" value="hasCrew" style="rhombus;whiteSpace=wrap;html=1;fillColor=#cce5ff;strokeColor=#36393d;" parent="1" vertex="1">
          <mxGeometry x="180" y="590" width="100" height="80" as="geometry" />
        </mxCell>
        <mxCell id="3cVwDTF0PyyG5tG76cxE-18" value="&lt;span style=&quot;font-size: 16px;&quot;&gt;Movie Crew&lt;/span&gt;" style="rounded=0;whiteSpace=wrap;html=1;fontSize=14;fillColor=#ffdbb8;strokeColor=#36393d;perimeterSpacing=0;fillStyle=auto;" parent="1" vertex="1">
          <mxGeometry x="-100" y="590" width="180" height="60" as="geometry" />
        </mxCell>
        <mxCell id="3cVwDTF0PyyG5tG76cxE-19" value="job" style="ellipse;whiteSpace=wrap;html=1;fillColor=#cdeb8b;strokeColor=#36393d;fontSize=13;" parent="1" vertex="1">
          <mxGeometry x="-120" y="680" width="100" height="50" as="geometry" />
        </mxCell>
        <mxCell id="3cVwDTF0PyyG5tG76cxE-21" value="" style="endArrow=none;html=1;rounded=0;entryX=0.5;entryY=1;entryDx=0;entryDy=0;" parent="1" target="3cVwDTF0PyyG5tG76cxE-18" edge="1">
          <mxGeometry width="50" height="50" relative="1" as="geometry">
            <mxPoint x="-70" y="680" as="sourcePoint" />
            <mxPoint x="360" y="580" as="targetPoint" />
          </mxGeometry>
        </mxCell>
        <mxCell id="3cVwDTF0PyyG5tG76cxE-22" value="" style="endArrow=none;html=1;rounded=0;entryX=0.5;entryY=1;entryDx=0;entryDy=0;exitX=0.5;exitY=0;exitDx=0;exitDy=0;" parent="1" source="3cVwDTF0PyyG5tG76cxE-23" target="3cVwDTF0PyyG5tG76cxE-18" edge="1">
          <mxGeometry width="50" height="50" relative="1" as="geometry">
            <mxPoint x="30" y="680" as="sourcePoint" />
            <mxPoint x="50" y="650" as="targetPoint" />
          </mxGeometry>
        </mxCell>
        <mxCell id="3cVwDTF0PyyG5tG76cxE-23" value="name" style="ellipse;whiteSpace=wrap;html=1;fillColor=#cdeb8b;strokeColor=#36393d;fontSize=13;" parent="1" vertex="1">
          <mxGeometry y="680" width="100" height="50" as="geometry" />
        </mxCell>
        <mxCell id="3cVwDTF0PyyG5tG76cxE-24" value="" style="endArrow=none;html=1;rounded=0;entryX=0.5;entryY=0;entryDx=0;entryDy=0;exitX=0.5;exitY=1;exitDx=0;exitDy=0;" parent="1" source="3cVwDTF0PyyG5tG76cxE-25" target="3cVwDTF0PyyG5tG76cxE-18" edge="1">
          <mxGeometry width="50" height="50" relative="1" as="geometry">
            <mxPoint x="70" y="680" as="sourcePoint" />
            <mxPoint x="360" y="580" as="targetPoint" />
          </mxGeometry>
        </mxCell>
        <mxCell id="3cVwDTF0PyyG5tG76cxE-25" value="person_id" style="ellipse;whiteSpace=wrap;html=1;fillColor=#cdeb8b;strokeColor=#36393d;fontSize=13;" parent="1" vertex="1">
          <mxGeometry x="10" y="510" width="100" height="50" as="geometry" />
        </mxCell>
        <mxCell id="3cVwDTF0PyyG5tG76cxE-26" value="" style="endArrow=none;html=1;rounded=0;entryX=0.5;entryY=0;entryDx=0;entryDy=0;" parent="1" target="3cVwDTF0PyyG5tG76cxE-18" edge="1">
          <mxGeometry width="50" height="50" relative="1" as="geometry">
            <mxPoint x="-70" y="560" as="sourcePoint" />
            <mxPoint x="360" y="580" as="targetPoint" />
          </mxGeometry>
        </mxCell>
        <mxCell id="3cVwDTF0PyyG5tG76cxE-29" value="&lt;u&gt;cid&lt;/u&gt;" style="ellipse;whiteSpace=wrap;html=1;fillColor=#cdeb8b;strokeColor=#36393d;fontSize=13;" parent="1" vertex="1">
          <mxGeometry x="-120" y="510" width="100" height="50" as="geometry" />
        </mxCell>
        <mxCell id="3cVwDTF0PyyG5tG76cxE-34" value="hasCast" style="rhombus;whiteSpace=wrap;html=1;fillColor=#cce5ff;strokeColor=#36393d;" parent="1" vertex="1">
          <mxGeometry x="670" y="590" width="100" height="80" as="geometry" />
        </mxCell>
        <mxCell id="3cVwDTF0PyyG5tG76cxE-37" value="&lt;font style=&quot;font-size: 16px;&quot;&gt;Movie Cast&lt;/font&gt;" style="rounded=0;whiteSpace=wrap;html=1;fontSize=14;fillColor=#ffdbb8;strokeColor=#36393d;perimeterSpacing=0;fillStyle=auto;" parent="1" vertex="1">
          <mxGeometry x="860" y="600" width="180" height="60" as="geometry" />
        </mxCell>
        <mxCell id="3cVwDTF0PyyG5tG76cxE-38" value="&lt;u&gt;cid&lt;/u&gt;" style="ellipse;whiteSpace=wrap;html=1;fillColor=#cdeb8b;strokeColor=#36393d;fontSize=13;" parent="1" vertex="1">
          <mxGeometry x="840" y="690" width="100" height="50" as="geometry" />
        </mxCell>
        <mxCell id="3cVwDTF0PyyG5tG76cxE-40" value="character" style="ellipse;whiteSpace=wrap;html=1;fillColor=#cdeb8b;strokeColor=#36393d;fontSize=13;" parent="1" vertex="1">
          <mxGeometry x="970" y="690" width="100" height="50" as="geometry" />
        </mxCell>
        <mxCell id="3cVwDTF0PyyG5tG76cxE-45" value="" style="endArrow=none;html=1;rounded=0;entryX=0.5;entryY=1;entryDx=0;entryDy=0;exitX=0.5;exitY=0;exitDx=0;exitDy=0;" parent="1" source="3cVwDTF0PyyG5tG76cxE-38" edge="1">
          <mxGeometry width="50" height="50" relative="1" as="geometry">
            <mxPoint x="840" y="690" as="sourcePoint" />
            <mxPoint x="960" y="660" as="targetPoint" />
          </mxGeometry>
        </mxCell>
        <mxCell id="3cVwDTF0PyyG5tG76cxE-47" value="" style="endArrow=none;html=1;rounded=0;entryX=0.5;entryY=1;entryDx=0;entryDy=0;exitX=0.5;exitY=0;exitDx=0;exitDy=0;" parent="1" source="3cVwDTF0PyyG5tG76cxE-40" edge="1">
          <mxGeometry width="50" height="50" relative="1" as="geometry">
            <mxPoint x="1040" y="690" as="sourcePoint" />
            <mxPoint x="960" y="660" as="targetPoint" />
          </mxGeometry>
        </mxCell>
        <mxCell id="3cVwDTF0PyyG5tG76cxE-48" value="" style="endArrow=none;html=1;rounded=0;" parent="1" edge="1">
          <mxGeometry width="50" height="50" relative="1" as="geometry">
            <mxPoint x="1020" y="571" as="sourcePoint" />
            <mxPoint x="950" y="600" as="targetPoint" />
          </mxGeometry>
        </mxCell>
        <mxCell id="3cVwDTF0PyyG5tG76cxE-49" value="person_id" style="ellipse;whiteSpace=wrap;html=1;fillColor=#cdeb8b;strokeColor=#36393d;fontSize=13;" parent="1" vertex="1">
          <mxGeometry x="840" y="521" width="100" height="50" as="geometry" />
        </mxCell>
        <mxCell id="3cVwDTF0PyyG5tG76cxE-50" value="name" style="ellipse;whiteSpace=wrap;html=1;fillColor=#cdeb8b;strokeColor=#36393d;fontSize=13;" parent="1" vertex="1">
          <mxGeometry x="970" y="521" width="100" height="50" as="geometry" />
        </mxCell>
        <mxCell id="3cVwDTF0PyyG5tG76cxE-51" value="" style="endArrow=none;html=1;rounded=0;entryX=0.5;entryY=0;entryDx=0;entryDy=0;exitX=0.5;exitY=1;exitDx=0;exitDy=0;" parent="1" source="3cVwDTF0PyyG5tG76cxE-49" target="3cVwDTF0PyyG5tG76cxE-37" edge="1">
          <mxGeometry width="50" height="50" relative="1" as="geometry">
            <mxPoint x="-200" y="560" as="sourcePoint" />
            <mxPoint y="600" as="targetPoint" />
          </mxGeometry>
        </mxCell>
        <mxCell id="3cVwDTF0PyyG5tG76cxE-52" value="" style="endArrow=none;html=1;rounded=0;entryX=0;entryY=0;entryDx=0;entryDy=0;" parent="1" target="3cVwDTF0PyyG5tG76cxE-1" edge="1">
          <mxGeometry width="50" height="50" relative="1" as="geometry">
            <mxPoint x="260" y="580" as="sourcePoint" />
            <mxPoint x="520" y="600" as="targetPoint" />
          </mxGeometry>
        </mxCell>
        <mxCell id="3cVwDTF0PyyG5tG76cxE-55" style="edgeStyle=orthogonalEdgeStyle;rounded=0;orthogonalLoop=1;jettySize=auto;html=1;exitX=0.5;exitY=1;exitDx=0;exitDy=0;" parent="1" source="3cVwDTF0PyyG5tG76cxE-14" target="3cVwDTF0PyyG5tG76cxE-14" edge="1">
          <mxGeometry relative="1" as="geometry" />
        </mxCell>
        <mxCell id="3cVwDTF0PyyG5tG76cxE-57" value="" style="endArrow=none;html=1;rounded=0;shape=link;" parent="1" edge="1">
          <mxGeometry width="50" height="50" relative="1" as="geometry">
            <mxPoint x="70" y="440" as="sourcePoint" />
            <mxPoint x="260" y="440" as="targetPoint" />
          </mxGeometry>
        </mxCell>
        <mxCell id="3cVwDTF0PyyG5tG76cxE-58" value="hasKewyword" style="rhombus;whiteSpace=wrap;html=1;fillColor=#cce5ff;strokeColor=#36393d;" parent="1" vertex="1">
          <mxGeometry x="210" y="470" width="100" height="80" as="geometry" />
        </mxCell>
        <mxCell id="3cVwDTF0PyyG5tG76cxE-59" value="" style="endArrow=none;html=1;rounded=0;" parent="1" edge="1">
          <mxGeometry width="50" height="50" relative="1" as="geometry">
            <mxPoint x="260" y="580" as="sourcePoint" />
            <mxPoint x="260" y="550" as="targetPoint" />
          </mxGeometry>
        </mxCell>
        <mxCell id="3cVwDTF0PyyG5tG76cxE-61" value="&lt;span style=&quot;font-size: 16px;&quot;&gt;Keyword&lt;/span&gt;" style="rounded=0;whiteSpace=wrap;html=1;fontSize=14;fillColor=#ffdbb8;strokeColor=#36393d;perimeterSpacing=0;fillStyle=auto;" parent="1" vertex="1">
          <mxGeometry x="-100" y="410" width="180" height="60" as="geometry" />
        </mxCell>
        <mxCell id="3cVwDTF0PyyG5tG76cxE-62" value="" style="endArrow=none;html=1;rounded=0;entryX=0.5;entryY=0;entryDx=0;entryDy=0;" parent="1" edge="1">
          <mxGeometry width="50" height="50" relative="1" as="geometry">
            <mxPoint x="-70" y="380" as="sourcePoint" />
            <mxPoint x="-10" y="410" as="targetPoint" />
          </mxGeometry>
        </mxCell>
        <mxCell id="3cVwDTF0PyyG5tG76cxE-63" value="" style="endArrow=none;html=1;rounded=0;" parent="1" edge="1">
          <mxGeometry width="50" height="50" relative="1" as="geometry">
            <mxPoint x="60" y="380" as="sourcePoint" />
            <mxPoint x="-10" y="409" as="targetPoint" />
          </mxGeometry>
        </mxCell>
        <mxCell id="3cVwDTF0PyyG5tG76cxE-64" value="&lt;u&gt;id&lt;/u&gt;" style="ellipse;whiteSpace=wrap;html=1;fillColor=#cdeb8b;strokeColor=#36393d;fontSize=13;" parent="1" vertex="1">
          <mxGeometry x="-120" y="330" width="100" height="50" as="geometry" />
        </mxCell>
        <mxCell id="3cVwDTF0PyyG5tG76cxE-65" value="name" style="ellipse;whiteSpace=wrap;html=1;fillColor=#cdeb8b;strokeColor=#36393d;fontSize=13;" parent="1" vertex="1">
          <mxGeometry x="10" y="330" width="100" height="50" as="geometry" />
        </mxCell>
        <mxCell id="3cVwDTF0PyyG5tG76cxE-66" value="" style="endArrow=none;html=1;rounded=0;" parent="1" edge="1">
          <mxGeometry width="50" height="50" relative="1" as="geometry">
            <mxPoint x="380" y="580" as="sourcePoint" />
            <mxPoint x="380" y="380" as="targetPoint" />
          </mxGeometry>
        </mxCell>
        <mxCell id="3cVwDTF0PyyG5tG76cxE-67" value="" style="endArrow=none;html=1;rounded=0;" parent="1" edge="1">
          <mxGeometry width="50" height="50" relative="1" as="geometry">
            <mxPoint x="320" y="380" as="sourcePoint" />
            <mxPoint x="380" y="380" as="targetPoint" />
          </mxGeometry>
        </mxCell>
        <mxCell id="3cVwDTF0PyyG5tG76cxE-68" value="hasGenre" style="rhombus;whiteSpace=wrap;html=1;fillColor=#cce5ff;strokeColor=#36393d;" parent="1" vertex="1">
          <mxGeometry x="220" y="340" width="100" height="80" as="geometry" />
        </mxCell>
        <mxCell id="3cVwDTF0PyyG5tG76cxE-75" value="&lt;span style=&quot;font-size: 16px;&quot;&gt;Genre&lt;/span&gt;" style="rounded=0;whiteSpace=wrap;html=1;fontSize=14;fillColor=#ffdbb8;strokeColor=#36393d;perimeterSpacing=0;fillStyle=auto;" parent="1" vertex="1">
          <mxGeometry x="170" y="230" width="180" height="60" as="geometry" />
        </mxCell>
        <mxCell id="3cVwDTF0PyyG5tG76cxE-76" value="" style="endArrow=none;html=1;rounded=0;entryX=0.5;entryY=0;entryDx=0;entryDy=0;" parent="1" edge="1">
          <mxGeometry width="50" height="50" relative="1" as="geometry">
            <mxPoint x="200" y="200" as="sourcePoint" />
            <mxPoint x="260" y="230" as="targetPoint" />
          </mxGeometry>
        </mxCell>
        <mxCell id="3cVwDTF0PyyG5tG76cxE-77" value="" style="endArrow=none;html=1;rounded=0;" parent="1" edge="1">
          <mxGeometry width="50" height="50" relative="1" as="geometry">
            <mxPoint x="330" y="200" as="sourcePoint" />
            <mxPoint x="260" y="229" as="targetPoint" />
          </mxGeometry>
        </mxCell>
        <mxCell id="3cVwDTF0PyyG5tG76cxE-78" value="&lt;u&gt;id&lt;/u&gt;" style="ellipse;whiteSpace=wrap;html=1;fillColor=#cdeb8b;strokeColor=#36393d;fontSize=13;" parent="1" vertex="1">
          <mxGeometry x="150" y="150" width="100" height="50" as="geometry" />
        </mxCell>
        <mxCell id="3cVwDTF0PyyG5tG76cxE-79" value="name" style="ellipse;whiteSpace=wrap;html=1;fillColor=#cdeb8b;strokeColor=#36393d;fontSize=13;" parent="1" vertex="1">
          <mxGeometry x="280" y="150" width="100" height="50" as="geometry" />
        </mxCell>
        <mxCell id="3cVwDTF0PyyG5tG76cxE-80" value="" style="endArrow=none;html=1;rounded=0;" parent="1" edge="1">
          <mxGeometry width="50" height="50" relative="1" as="geometry">
            <mxPoint x="470" y="580" as="sourcePoint" />
            <mxPoint x="470" y="480" as="targetPoint" />
          </mxGeometry>
        </mxCell>
        <mxCell id="3cVwDTF0PyyG5tG76cxE-81" value="hasProduction&lt;br&gt;company" style="rhombus;whiteSpace=wrap;html=1;fillColor=#cce5ff;strokeColor=#36393d;" parent="1" vertex="1">
          <mxGeometry x="500" y="350" width="100" height="80" as="geometry" />
        </mxCell>
        <mxCell id="3cVwDTF0PyyG5tG76cxE-84" value="&lt;span style=&quot;font-size: 16px;&quot;&gt;Production Company&lt;/span&gt;" style="rounded=0;whiteSpace=wrap;html=1;fontSize=14;fillColor=#ffdbb8;strokeColor=#36393d;perimeterSpacing=0;fillStyle=auto;" parent="1" vertex="1">
          <mxGeometry x="460" y="220" width="180" height="60" as="geometry" />
        </mxCell>
        <mxCell id="3cVwDTF0PyyG5tG76cxE-86" value="" style="endArrow=none;html=1;rounded=0;" parent="1" edge="1">
          <mxGeometry width="50" height="50" relative="1" as="geometry">
            <mxPoint x="470" y="480" as="sourcePoint" />
            <mxPoint x="550" y="480" as="targetPoint" />
          </mxGeometry>
        </mxCell>
        <mxCell id="3cVwDTF0PyyG5tG76cxE-87" value="" style="endArrow=none;html=1;rounded=0;" parent="1" edge="1">
          <mxGeometry width="50" height="50" relative="1" as="geometry">
            <mxPoint x="550" y="480" as="sourcePoint" />
            <mxPoint x="550" y="430" as="targetPoint" />
          </mxGeometry>
        </mxCell>
        <mxCell id="3cVwDTF0PyyG5tG76cxE-88" value="" style="endArrow=none;html=1;rounded=0;entryX=0.5;entryY=0;entryDx=0;entryDy=0;" parent="1" edge="1">
          <mxGeometry width="50" height="50" relative="1" as="geometry">
            <mxPoint x="500" y="190" as="sourcePoint" />
            <mxPoint x="560" y="220" as="targetPoint" />
          </mxGeometry>
        </mxCell>
        <mxCell id="3cVwDTF0PyyG5tG76cxE-89" value="" style="endArrow=none;html=1;rounded=0;" parent="1" edge="1">
          <mxGeometry width="50" height="50" relative="1" as="geometry">
            <mxPoint x="630" y="190" as="sourcePoint" />
            <mxPoint x="560" y="219" as="targetPoint" />
          </mxGeometry>
        </mxCell>
        <mxCell id="3cVwDTF0PyyG5tG76cxE-90" value="&lt;u&gt;id&lt;/u&gt;" style="ellipse;whiteSpace=wrap;html=1;fillColor=#cdeb8b;strokeColor=#36393d;fontSize=13;" parent="1" vertex="1">
          <mxGeometry x="450" y="140" width="100" height="50" as="geometry" />
        </mxCell>
        <mxCell id="3cVwDTF0PyyG5tG76cxE-91" value="name" style="ellipse;whiteSpace=wrap;html=1;fillColor=#cdeb8b;strokeColor=#36393d;fontSize=13;" parent="1" vertex="1">
          <mxGeometry x="580" y="140" width="100" height="50" as="geometry" />
        </mxCell>
        <mxCell id="3cVwDTF0PyyG5tG76cxE-92" value="" style="endArrow=none;html=1;rounded=0;exitX=1;exitY=0;exitDx=0;exitDy=0;" parent="1" source="3cVwDTF0PyyG5tG76cxE-1" edge="1">
          <mxGeometry width="50" height="50" relative="1" as="geometry">
            <mxPoint x="340" y="520" as="sourcePoint" />
            <mxPoint x="560" y="520" as="targetPoint" />
          </mxGeometry>
        </mxCell>
        <mxCell id="3cVwDTF0PyyG5tG76cxE-93" value="" style="endArrow=none;html=1;rounded=0;" parent="1" edge="1">
          <mxGeometry width="50" height="50" relative="1" as="geometry">
            <mxPoint x="560" y="520" as="sourcePoint" />
            <mxPoint x="670" y="520" as="targetPoint" />
          </mxGeometry>
        </mxCell>
        <mxCell id="3cVwDTF0PyyG5tG76cxE-94" value="" style="endArrow=none;html=1;rounded=0;" parent="1" edge="1">
          <mxGeometry width="50" height="50" relative="1" as="geometry">
            <mxPoint x="670" y="520" as="sourcePoint" />
            <mxPoint x="670" y="320" as="targetPoint" />
          </mxGeometry>
        </mxCell>
        <mxCell id="3cVwDTF0PyyG5tG76cxE-98" value="belongsTo&lt;br&gt;collection" style="rhombus;whiteSpace=wrap;html=1;fillColor=#cce5ff;strokeColor=#36393d;" parent="1" vertex="1">
          <mxGeometry x="780" y="280" width="100" height="80" as="geometry" />
        </mxCell>
        <mxCell id="3cVwDTF0PyyG5tG76cxE-100" value="" style="endArrow=none;html=1;rounded=0;exitX=0.5;exitY=0;exitDx=0;exitDy=0;" parent="1" source="3cVwDTF0PyyG5tG76cxE-98" edge="1">
          <mxGeometry width="50" height="50" relative="1" as="geometry">
            <mxPoint x="820" y="400" as="sourcePoint" />
            <mxPoint x="830" y="210" as="targetPoint" />
          </mxGeometry>
        </mxCell>
        <mxCell id="3cVwDTF0PyyG5tG76cxE-101" value="&lt;span style=&quot;font-size: 16px;&quot;&gt;Collection&lt;/span&gt;" style="rounded=0;whiteSpace=wrap;html=1;fontSize=14;fillColor=#ffdbb8;strokeColor=#36393d;perimeterSpacing=0;fillStyle=auto;" parent="1" vertex="1">
          <mxGeometry x="740" y="150" width="180" height="60" as="geometry" />
        </mxCell>
        <mxCell id="3cVwDTF0PyyG5tG76cxE-102" value="" style="endArrow=none;html=1;rounded=0;entryX=0.5;entryY=0;entryDx=0;entryDy=0;" parent="1" edge="1">
          <mxGeometry width="50" height="50" relative="1" as="geometry">
            <mxPoint x="775" y="120" as="sourcePoint" />
            <mxPoint x="835" y="150" as="targetPoint" />
          </mxGeometry>
        </mxCell>
        <mxCell id="3cVwDTF0PyyG5tG76cxE-103" value="" style="endArrow=none;html=1;rounded=0;" parent="1" edge="1">
          <mxGeometry width="50" height="50" relative="1" as="geometry">
            <mxPoint x="905" y="120" as="sourcePoint" />
            <mxPoint x="835" y="149" as="targetPoint" />
          </mxGeometry>
        </mxCell>
        <mxCell id="3cVwDTF0PyyG5tG76cxE-104" value="&lt;u&gt;id&lt;/u&gt;" style="ellipse;whiteSpace=wrap;html=1;fillColor=#cdeb8b;strokeColor=#36393d;fontSize=13;" parent="1" vertex="1">
          <mxGeometry x="725" y="70" width="100" height="50" as="geometry" />
        </mxCell>
        <mxCell id="3cVwDTF0PyyG5tG76cxE-105" value="name" style="ellipse;whiteSpace=wrap;html=1;fillColor=#cdeb8b;strokeColor=#36393d;fontSize=13;" parent="1" vertex="1">
          <mxGeometry x="855" y="70" width="100" height="50" as="geometry" />
        </mxCell>
        <mxCell id="3cVwDTF0PyyG5tG76cxE-106" value="" style="endArrow=none;html=1;rounded=0;exitX=1;exitY=0;exitDx=0;exitDy=0;" parent="1" source="3cVwDTF0PyyG5tG76cxE-1" edge="1">
          <mxGeometry width="50" height="50" relative="1" as="geometry">
            <mxPoint x="850" y="620" as="sourcePoint" />
            <mxPoint x="750" y="580" as="targetPoint" />
          </mxGeometry>
        </mxCell>
        <mxCell id="3cVwDTF0PyyG5tG76cxE-107" value="" style="endArrow=none;html=1;rounded=0;" parent="1" edge="1">
          <mxGeometry width="50" height="50" relative="1" as="geometry">
            <mxPoint x="750" y="580" as="sourcePoint" />
            <mxPoint x="750" y="450" as="targetPoint" />
          </mxGeometry>
        </mxCell>
        <mxCell id="bmToHbx_m7U6vyhUU-Qj-1" value="hasRating" style="rhombus;whiteSpace=wrap;html=1;fillColor=#cce5ff;strokeColor=#36393d;" parent="1" vertex="1">
          <mxGeometry x="890" y="410" width="100" height="80" as="geometry" />
        </mxCell>
        <mxCell id="bmToHbx_m7U6vyhUU-Qj-4" value="&lt;span style=&quot;font-size: 16px;&quot;&gt;Ratings&lt;/span&gt;" style="rounded=0;whiteSpace=wrap;html=1;fontSize=14;fillColor=#ffdbb8;strokeColor=#36393d;perimeterSpacing=0;fillStyle=auto;gradientColor=none;strokeWidth=4;" parent="1" vertex="1">
          <mxGeometry x="980" y="280" width="180" height="60" as="geometry" />
        </mxCell>
        <mxCell id="bmToHbx_m7U6vyhUU-Qj-5" value="" style="endArrow=none;html=1;rounded=0;entryX=0.5;entryY=0;entryDx=0;entryDy=0;" parent="1" edge="1">
          <mxGeometry width="50" height="50" relative="1" as="geometry">
            <mxPoint x="990" y="250" as="sourcePoint" />
            <mxPoint x="1065" y="280" as="targetPoint" />
          </mxGeometry>
        </mxCell>
        <mxCell id="bmToHbx_m7U6vyhUU-Qj-6" value="&lt;p class=&quot;MsoNormal&quot;&gt;user_id&lt;/p&gt;" style="ellipse;whiteSpace=wrap;html=1;fillColor=#cdeb8b;strokeColor=#36393d;fontSize=13;" parent="1" vertex="1">
          <mxGeometry x="940" y="200" width="100" height="50" as="geometry" />
        </mxCell>
        <mxCell id="bmToHbx_m7U6vyhUU-Qj-10" value="" style="endArrow=none;html=1;rounded=0;entryX=0.5;entryY=0;entryDx=0;entryDy=0;exitX=0.5;exitY=1;exitDx=0;exitDy=0;" parent="1" source="bmToHbx_m7U6vyhUU-Qj-11" target="bmToHbx_m7U6vyhUU-Qj-4" edge="1">
          <mxGeometry width="50" height="50" relative="1" as="geometry">
            <mxPoint x="1190" y="250" as="sourcePoint" />
            <mxPoint x="1080" y="290" as="targetPoint" />
          </mxGeometry>
        </mxCell>
        <mxCell id="bmToHbx_m7U6vyhUU-Qj-11" value="rating" style="ellipse;whiteSpace=wrap;html=1;fillColor=#cdeb8b;strokeColor=#36393d;fontSize=13;" parent="1" vertex="1">
          <mxGeometry x="1090" y="200" width="100" height="50" as="geometry" />
        </mxCell>
        <mxCell id="bmToHbx_m7U6vyhUU-Qj-13" value="" style="endArrow=none;html=1;rounded=0;exitX=0;exitY=0.5;exitDx=0;exitDy=0;" parent="1" source="bmToHbx_m7U6vyhUU-Qj-1" edge="1">
          <mxGeometry width="50" height="50" relative="1" as="geometry">
            <mxPoint x="760" y="590" as="sourcePoint" />
            <mxPoint x="750" y="450" as="targetPoint" />
          </mxGeometry>
        </mxCell>
        <mxCell id="pnqVm8Gtk-yloZDZJLWc-1" value="" style="endArrow=classic;html=1;rounded=0;entryX=0;entryY=0.5;entryDx=0;entryDy=0;exitX=0;exitY=0.5;exitDx=0;exitDy=0;" parent="1" source="3cVwDTF0PyyG5tG76cxE-14" target="3cVwDTF0PyyG5tG76cxE-14" edge="1">
          <mxGeometry width="50" height="50" relative="1" as="geometry">
            <mxPoint x="600" y="430" as="sourcePoint" />
            <mxPoint x="650" y="380" as="targetPoint" />
          </mxGeometry>
        </mxCell>
        <mxCell id="pnqVm8Gtk-yloZDZJLWc-4" value="" style="endArrow=none;html=1;rounded=0;entryX=1;entryY=0.5;entryDx=0;entryDy=0;" parent="1" target="3cVwDTF0PyyG5tG76cxE-14" edge="1">
          <mxGeometry width="50" height="50" relative="1" as="geometry">
            <mxPoint x="380" y="630" as="sourcePoint" />
            <mxPoint x="650" y="380" as="targetPoint" />
          </mxGeometry>
        </mxCell>
        <mxCell id="pnqVm8Gtk-yloZDZJLWc-6" value="" style="endArrow=none;html=1;rounded=0;entryX=0;entryY=0.5;entryDx=0;entryDy=0;" parent="1" target="3cVwDTF0PyyG5tG76cxE-34" edge="1">
          <mxGeometry width="50" height="50" relative="1" as="geometry">
            <mxPoint x="560" y="630" as="sourcePoint" />
            <mxPoint x="650" y="380" as="targetPoint" />
          </mxGeometry>
        </mxCell>
        <mxCell id="pnqVm8Gtk-yloZDZJLWc-7" value="" style="endArrow=classic;html=1;rounded=0;entryX=0;entryY=0.5;entryDx=0;entryDy=0;exitX=0;exitY=0.5;exitDx=0;exitDy=0;" parent="1" edge="1">
          <mxGeometry width="50" height="50" relative="1" as="geometry">
            <mxPoint x="190" y="640" as="sourcePoint" />
            <mxPoint x="190" y="640" as="targetPoint" />
          </mxGeometry>
        </mxCell>
        <mxCell id="pnqVm8Gtk-yloZDZJLWc-9" value="" style="endArrow=none;html=1;rounded=0;exitX=0.5;exitY=0;exitDx=0;exitDy=0;" parent="1" source="3cVwDTF0PyyG5tG76cxE-68" edge="1">
          <mxGeometry width="50" height="50" relative="1" as="geometry">
            <mxPoint x="580" y="430" as="sourcePoint" />
            <mxPoint x="270" y="290" as="targetPoint" />
          </mxGeometry>
        </mxCell>
        <mxCell id="pnqVm8Gtk-yloZDZJLWc-10" value="" style="endArrow=none;html=1;rounded=0;entryX=0.5;entryY=1;entryDx=0;entryDy=0;exitX=0.5;exitY=0;exitDx=0;exitDy=0;shape=link;" parent="1" source="3cVwDTF0PyyG5tG76cxE-81" target="3cVwDTF0PyyG5tG76cxE-84" edge="1">
          <mxGeometry width="50" height="50" relative="1" as="geometry">
            <mxPoint x="580" y="430" as="sourcePoint" />
            <mxPoint x="630" y="380" as="targetPoint" />
          </mxGeometry>
        </mxCell>
        <mxCell id="pnqVm8Gtk-yloZDZJLWc-12" value="" style="endArrow=none;html=1;rounded=0;exitX=0.5;exitY=0;exitDx=0;exitDy=0;shape=link;" parent="1" source="3cVwDTF0PyyG5tG76cxE-58" edge="1">
          <mxGeometry width="50" height="50" relative="1" as="geometry">
            <mxPoint x="580" y="430" as="sourcePoint" />
            <mxPoint x="260" y="440" as="targetPoint" />
          </mxGeometry>
        </mxCell>
        <mxCell id="pnqVm8Gtk-yloZDZJLWc-17" value="" style="endArrow=none;dashed=1;html=1;dashPattern=1 3;strokeWidth=2;rounded=0;" parent="1" edge="1">
          <mxGeometry width="50" height="50" relative="1" as="geometry">
            <mxPoint x="970" y="240" as="sourcePoint" />
            <mxPoint x="1020" y="240" as="targetPoint" />
            <Array as="points" />
          </mxGeometry>
        </mxCell>
        <mxCell id="pnqVm8Gtk-yloZDZJLWc-20" value="" style="endArrow=classic;html=1;rounded=0;entryX=0;entryY=0.5;entryDx=0;entryDy=0;" parent="1" target="3cVwDTF0PyyG5tG76cxE-98" edge="1">
          <mxGeometry width="50" height="50" relative="1" as="geometry">
            <mxPoint x="670" y="320" as="sourcePoint" />
            <mxPoint x="550" y="340" as="targetPoint" />
          </mxGeometry>
        </mxCell>
        <mxCell id="oySPcqPqKQ_Uv4Lrq7wo-1" value="" style="endArrow=classic;html=1;rounded=0;entryX=1;entryY=0.5;entryDx=0;entryDy=0;exitX=0;exitY=0.5;exitDx=0;exitDy=0;strokeWidth=4;" parent="1" source="3cVwDTF0PyyG5tG76cxE-37" target="3cVwDTF0PyyG5tG76cxE-34" edge="1">
          <mxGeometry width="50" height="50" relative="1" as="geometry">
            <mxPoint x="800" y="640" as="sourcePoint" />
            <mxPoint x="850" y="590" as="targetPoint" />
          </mxGeometry>
        </mxCell>
        <mxCell id="oySPcqPqKQ_Uv4Lrq7wo-2" value="" style="endArrow=none;html=1;rounded=0;entryX=0.5;entryY=1;entryDx=0;entryDy=0;strokeWidth=4;" parent="1" target="bmToHbx_m7U6vyhUU-Qj-4" edge="1">
          <mxGeometry width="50" height="50" relative="1" as="geometry">
            <mxPoint x="1070" y="450" as="sourcePoint" />
            <mxPoint x="930" y="480" as="targetPoint" />
          </mxGeometry>
        </mxCell>
        <mxCell id="oySPcqPqKQ_Uv4Lrq7wo-4" value="" style="endArrow=classic;html=1;rounded=0;entryX=1;entryY=0.5;entryDx=0;entryDy=0;strokeWidth=4;" parent="1" target="bmToHbx_m7U6vyhUU-Qj-1" edge="1">
          <mxGeometry width="50" height="50" relative="1" as="geometry">
            <mxPoint x="1070" y="450" as="sourcePoint" />
            <mxPoint x="930" y="480" as="targetPoint" />
          </mxGeometry>
        </mxCell>
        <mxCell id="oySPcqPqKQ_Uv4Lrq7wo-5" value="" style="endArrow=classic;html=1;rounded=0;entryX=0;entryY=0.5;entryDx=0;entryDy=0;strokeWidth=4;" parent="1" target="3cVwDTF0PyyG5tG76cxE-14" edge="1">
          <mxGeometry width="50" height="50" relative="1" as="geometry">
            <mxPoint x="80" y="630" as="sourcePoint" />
            <mxPoint x="440" y="480" as="targetPoint" />
          </mxGeometry>
        </mxCell>
      </root>
    </mxGraphModel>
  </diagram>
</mxfile>
